<svg width="40" height="40" viewBox="0 0 40 40" fill="none" xmlns="http://www.w3.org/2000/svg"><path d="M20 20C20 20 19.7412 15.0822 23.7961 10.8353M20 20C20 20 23.2944 16.3395 29.1647 16.2039M20 20C20 20 24.9178 19.7412 29.1646 23.7961M20 20C20 20 23.6605 23.2944 23.7961 29.1647M20 20C20 20 20.2588 24.9178 16.2039 29.1647M20 20C20 20 16.7056 23.6604 10.8353 23.7961M20 20C20 20 15.0822 20.2588 10.8353 16.2039M20 20C20 20 16.3396 16.7056 16.2039 10.8354M23.7961 10.8353C23.8727 10.7551 23.9508 10.6752 24.0305 10.5955C28.3297 6.2963 33.435 6.565 33.435 6.565C33.435 6.565 33.7037 11.6703 29.4045 15.9695C29.3248 16.0492 29.2449 16.1273 29.1647 16.2039M23.7961 10.8353C23.7987 10.7245 23.8 10.6127 23.8 10.5C23.8 4.42 20 1 20 1C20 1 16.2 4.42 16.2 10.5C16.2 10.6127 16.2013 10.7245 16.2039 10.8354M29.1647 16.2039C29.2755 16.2013 29.3873 16.2 29.5 16.2C35.58 16.2 39 20 39 20C39 20 35.58 23.8 29.5 23.8C29.3873 23.8 29.2755 23.7987 29.1646 23.7961M29.1646 23.7961C29.2449 23.8727 29.3248 23.9508 29.4045 24.0305C33.7037 28.3297 33.435 33.435 33.435 33.435C33.435 33.435 28.3297 33.7037 24.0305 29.4045C23.9508 29.3249 23.8727 29.2449 23.7961 29.1647M23.7961 29.1647C23.7987 29.2755 23.8 29.3873 23.8 29.5C23.8 35.58 20 39 20 39C20 39 16.2 35.58 16.2 29.5C16.2 29.3873 16.2013 29.2755 16.2039 29.1647M16.2039 29.1647C16.1273 29.2449 16.0492 29.3249 15.9695 29.4046C11.6703 33.7038 6.56496 33.4351 6.56496 33.4351C6.56496 33.4351 6.29625 28.3298 10.5955 24.0305C10.6752 23.9508 10.7551 23.8727 10.8353 23.7961M10.8353 23.7961C10.7245 23.7987 10.6127 23.8 10.5 23.8C4.42 23.8 1 20 1 20C1 20 4.42 16.2 10.5 16.2C10.6127 16.2 10.7244 16.2013 10.8353 16.2039M10.8353 16.2039C10.7551 16.1273 10.6751 16.0492 10.5955 15.9695C6.29626 11.6703 6.56496 6.56498 6.56496 6.56498C6.56496 6.56498 11.6703 6.29628 15.9695 10.5955C16.0492 10.6752 16.1273 10.7551 16.2039 10.8354" stroke="url(#paint0_linear_207_652)" pathLength="1" stroke-dashoffset="0px" stroke-dasharray="1px 1px" transform-origin="20px 20px" style="transform: none; transform-origin: 20px 20px;"></path><defs><linearGradient id="paint0_linear_207_652" x1="1" y1="1" x2="39.2893" y2="39.2893" gradientUnits="userSpaceOnUse"><stop stop-color="#FF1A2D"></stop><stop offset="1" stop-color="#FF791A"></stop></linearGradient></defs></svg>