<svg xmlns="http://www.w3.org/2000/svg" xlink="http://www.w3.org/1999/xlink" viewBox="0 0 115 40" id="svg2690953486">
    <path d="M 58.026 0 L 61.147 0 L 68.97 21.518 L 66.234 21.518 L 64.635 17.122 L 54.537 17.122 L 52.954 21.518 L 50.203 21.518 Z M 55.49 14.54 L 63.683 14.54 L 59.579 3.305 Z" fill="var(--token-0416a9ef-ee6b-47cd-a2d0-f1d001e916ea, rgb(14, 15, 17)) /* {&quot;name&quot;:&quot;[light] primary-text&quot;} */"></path><path d="M 70.991 14.294 L 70.991 6.148 L 73.573 6.148 L 73.573 14.232 C 73.573 15.185 73.773 16.056 74.172 16.845 C 74.572 17.624 75.115 18.249 75.802 18.721 C 76.488 19.182 77.262 19.412 78.122 19.412 C 78.983 19.412 79.741 19.182 80.397 18.721 C 81.063 18.249 81.581 17.624 81.95 16.845 C 82.329 16.056 82.518 15.185 82.518 14.232 L 82.518 6.148 L 85.1 6.148 L 85.1 21.518 L 82.518 21.518 L 82.518 19.136 C 81.965 19.996 81.284 20.678 80.474 21.18 C 79.665 21.682 78.758 21.933 77.754 21.933 C 76.411 21.933 75.233 21.584 74.219 20.888 C 73.214 20.191 72.43 19.264 71.867 18.106 C 71.303 16.948 71.011 15.677 70.991 14.294 Z" fill="var(--token-0416a9ef-ee6b-47cd-a2d0-f1d001e916ea, rgb(14, 15, 17)) /* {&quot;name&quot;:&quot;[light] primary-text&quot;} */"></path><path d="M 97.584 8.699 C 97.328 8.556 97.051 8.443 96.754 8.361 C 96.457 8.279 96.134 8.238 95.785 8.238 C 94.935 8.238 94.177 8.469 93.511 8.93 C 92.855 9.391 92.338 10.016 91.958 10.805 C 91.579 11.594 91.39 12.465 91.39 13.418 L 91.39 21.518 L 88.792 21.518 L 88.792 6.148 L 91.374 6.148 L 91.374 8.515 C 91.928 7.654 92.614 6.978 93.434 6.486 C 94.254 5.984 95.16 5.733 96.154 5.733 C 96.493 5.733 96.815 5.748 97.123 5.779 C 97.43 5.81 97.722 5.871 97.999 5.963 Z" fill="var(--token-0416a9ef-ee6b-47cd-a2d0-f1d001e916ea, rgb(14, 15, 17)) /* {&quot;name&quot;:&quot;[light] primary-text&quot;} */"></path><path d="M 111.735 6.148 L 114.317 6.148 L 114.317 21.518 L 111.72 21.518 L 111.628 18.92 C 111.146 19.812 110.48 20.534 109.63 21.087 C 108.789 21.641 107.79 21.917 106.633 21.917 C 105.495 21.917 104.435 21.707 103.451 21.287 C 102.467 20.857 101.596 20.268 100.838 19.52 C 100.09 18.762 99.506 17.89 99.086 16.907 C 98.666 15.923 98.456 14.863 98.456 13.725 C 98.456 12.629 98.661 11.594 99.071 10.621 C 99.48 9.647 100.049 8.797 100.777 8.069 C 101.514 7.331 102.365 6.758 103.328 6.348 C 104.291 5.928 105.321 5.718 106.417 5.718 C 107.637 5.718 108.702 6.004 109.614 6.578 C 110.536 7.142 111.274 7.874 111.828 8.776 Z M 106.694 19.412 C 107.719 19.412 108.6 19.156 109.338 18.644 C 110.075 18.131 110.634 17.445 111.013 16.584 C 111.402 15.723 111.576 14.77 111.536 13.725 C 111.495 12.701 111.254 11.773 110.813 10.943 C 110.373 10.113 109.778 9.458 109.03 8.976 C 108.282 8.484 107.411 8.238 106.417 8.238 C 105.403 8.238 104.481 8.494 103.651 9.007 C 102.821 9.519 102.17 10.206 101.699 11.066 C 101.238 11.927 101.028 12.885 101.069 13.94 C 101.12 14.955 101.407 15.877 101.929 16.707 C 102.452 17.537 103.128 18.198 103.958 18.69 C 104.798 19.171 105.71 19.412 106.694 19.412 Z" fill="var(--token-0416a9ef-ee6b-47cd-a2d0-f1d001e916ea, rgb(14, 15, 17)) /* {&quot;name&quot;:&quot;[light] primary-text&quot;} */"></path><path d="M 53.278 40 C 52.857 40 52.453 39.934 52.066 39.803 C 51.679 39.671 51.341 39.483 51.052 39.238 C 50.763 38.99 50.557 38.695 50.433 38.355 L 51.502 37.955 C 51.564 38.131 51.682 38.288 51.858 38.427 C 52.037 38.562 52.249 38.668 52.494 38.745 C 52.742 38.822 53.004 38.86 53.278 38.86 C 53.57 38.86 53.844 38.812 54.1 38.717 C 54.359 38.622 54.568 38.491 54.725 38.323 C 54.886 38.154 54.966 37.957 54.966 37.731 C 54.966 37.497 54.882 37.305 54.714 37.155 C 54.549 37.005 54.337 36.886 54.078 36.799 C 53.822 36.711 53.555 36.645 53.278 36.601 C 52.74 36.514 52.258 36.386 51.83 36.218 C 51.407 36.05 51.07 35.814 50.822 35.511 C 50.577 35.207 50.455 34.813 50.455 34.327 C 50.455 33.87 50.584 33.471 50.844 33.132 C 51.107 32.792 51.452 32.529 51.88 32.342 C 52.311 32.152 52.777 32.057 53.278 32.057 C 53.691 32.057 54.089 32.123 54.472 32.255 C 54.86 32.382 55.2 32.571 55.492 32.819 C 55.788 33.064 56 33.362 56.128 33.713 L 55.048 34.102 C 54.986 33.923 54.867 33.767 54.692 33.636 C 54.516 33.501 54.304 33.395 54.056 33.318 C 53.811 33.241 53.552 33.203 53.278 33.203 C 52.985 33.199 52.711 33.247 52.455 33.345 C 52.203 33.44 51.997 33.572 51.836 33.74 C 51.675 33.908 51.595 34.104 51.595 34.327 C 51.595 34.601 51.67 34.809 51.819 34.952 C 51.969 35.094 52.17 35.2 52.422 35.269 C 52.678 35.335 52.963 35.395 53.278 35.45 C 53.782 35.531 54.248 35.664 54.675 35.85 C 55.107 36.037 55.452 36.285 55.711 36.596 C 55.974 36.903 56.106 37.281 56.106 37.731 C 56.106 38.184 55.974 38.582 55.711 38.926 C 55.452 39.266 55.107 39.53 54.675 39.72 C 54.248 39.907 53.782 40 53.278 40 Z" fill="var(--token-0416a9ef-ee6b-47cd-a2d0-f1d001e916ea, rgb(14, 15, 17)) /* {&quot;name&quot;:&quot;[light] primary-text&quot;} */"></path><path d="M 64.332 32.183 L 65.675 32.183 L 63.055 36.393 L 63.055 39.858 L 61.915 39.858 L 61.915 36.393 L 59.3 32.183 L 60.643 32.183 L 62.485 35.149 Z" fill="var(--token-0416a9ef-ee6b-47cd-a2d0-f1d001e916ea, rgb(14, 15, 17)) /* {&quot;name&quot;:&quot;[light] primary-text&quot;} */"></path><path d="M 71.698 40 C 71.278 40 70.874 39.934 70.486 39.803 C 70.099 39.671 69.761 39.483 69.472 39.238 C 69.184 38.99 68.977 38.695 68.853 38.355 L 69.922 37.955 C 69.984 38.131 70.103 38.288 70.278 38.427 C 70.457 38.562 70.669 38.668 70.914 38.745 C 71.162 38.822 71.424 38.86 71.698 38.86 C 71.99 38.86 72.264 38.812 72.52 38.717 C 72.779 38.622 72.988 38.491 73.145 38.323 C 73.306 38.154 73.386 37.957 73.386 37.731 C 73.386 37.497 73.302 37.305 73.134 37.155 C 72.969 37.005 72.757 36.886 72.498 36.799 C 72.242 36.711 71.975 36.645 71.698 36.601 C 71.161 36.514 70.678 36.386 70.251 36.218 C 69.827 36.05 69.49 35.814 69.242 35.511 C 68.997 35.207 68.875 34.813 68.875 34.327 C 68.875 33.87 69.004 33.471 69.264 33.132 C 69.527 32.792 69.872 32.529 70.3 32.342 C 70.731 32.152 71.197 32.057 71.698 32.057 C 72.111 32.057 72.509 32.123 72.893 32.255 C 73.28 32.382 73.62 32.571 73.912 32.819 C 74.208 33.064 74.42 33.362 74.548 33.713 L 73.468 34.102 C 73.406 33.923 73.287 33.767 73.112 33.636 C 72.937 33.501 72.725 33.395 72.476 33.318 C 72.231 33.241 71.972 33.203 71.698 33.203 C 71.405 33.199 71.131 33.247 70.876 33.345 C 70.623 33.44 70.417 33.572 70.256 33.74 C 70.095 33.908 70.015 34.104 70.015 34.327 C 70.015 34.601 70.09 34.809 70.24 34.952 C 70.389 35.094 70.591 35.2 70.843 35.269 C 71.098 35.335 71.383 35.395 71.698 35.45 C 72.202 35.531 72.668 35.664 73.096 35.85 C 73.527 36.037 73.872 36.285 74.132 36.596 C 74.395 36.903 74.526 37.281 74.526 37.731 C 74.526 38.184 74.395 38.582 74.132 38.926 C 73.872 39.266 73.527 39.53 73.096 39.72 C 72.668 39.907 72.202 40 71.698 40 Z" fill="var(--token-0416a9ef-ee6b-47cd-a2d0-f1d001e916ea, rgb(14, 15, 17)) /* {&quot;name&quot;:&quot;[light] primary-text&quot;} */"></path><path d="M 83.929 32.183 L 83.929 33.324 L 81.485 33.324 L 81.485 39.858 L 80.344 39.858 L 80.344 33.324 L 77.905 33.324 L 77.905 32.183 Z" fill="var(--token-0416a9ef-ee6b-47cd-a2d0-f1d001e916ea, rgb(14, 15, 17)) /* {&quot;name&quot;:&quot;[light] primary-text&quot;} */"></path>
    <path d="M 87.661 39.858 L 87.661 32.183 L 92.424 32.183 L 92.424 33.324 L 88.801 33.324 L 88.801 35.176 L 91.717 35.176 L 91.717 36.316 L 88.801 36.316 L 88.801 38.717 L 92.424 38.717 L 92.424 39.858 Z" fill="var(--token-0416a9ef-ee6b-47cd-a2d0-f1d001e916ea, rgb(14, 15, 17)) /* {&quot;name&quot;:&quot;[light] primary-text&quot;} */"></path><path d="M 96.266 39.858 L 97.752 32.183 L 98.673 32.183 L 100.641 37.352 L 102.597 32.183 L 103.518 32.183 L 105.009 39.858 L 103.847 39.858 L 102.855 34.721 L 101.019 39.567 L 100.251 39.567 L 98.421 34.721 L 97.428 39.858 Z" fill="var(--token-0416a9ef-ee6b-47cd-a2d0-f1d001e916ea, rgb(14, 15, 17)) /* {&quot;name&quot;:&quot;[light] primary-text&quot;} */"></path><path d="M 111.697 40 C 111.276 40 110.872 39.934 110.485 39.803 C 110.098 39.671 109.76 39.483 109.471 39.238 C 109.182 38.99 108.976 38.695 108.852 38.355 L 109.92 37.955 C 109.983 38.131 110.101 38.288 110.277 38.427 C 110.456 38.562 110.668 38.668 110.913 38.745 C 111.161 38.822 111.422 38.86 111.697 38.86 C 111.989 38.86 112.263 38.812 112.519 38.717 C 112.778 38.622 112.987 38.491 113.144 38.323 C 113.304 38.154 113.385 37.957 113.385 37.731 C 113.385 37.497 113.301 37.305 113.133 37.155 C 112.968 37.005 112.756 36.886 112.497 36.799 C 112.241 36.711 111.974 36.645 111.697 36.601 C 111.159 36.514 110.677 36.386 110.249 36.218 C 109.825 36.05 109.489 35.814 109.241 35.511 C 108.996 35.207 108.874 34.813 108.874 34.327 C 108.874 33.87 109.003 33.471 109.263 33.132 C 109.526 32.792 109.871 32.529 110.299 32.342 C 110.73 32.152 111.196 32.057 111.697 32.057 C 112.109 32.057 112.508 32.123 112.892 32.255 C 113.279 32.382 113.619 32.571 113.911 32.819 C 114.207 33.064 114.419 33.362 114.547 33.713 L 113.467 34.102 C 113.405 33.923 113.286 33.767 113.111 33.636 C 112.935 33.501 112.723 33.395 112.475 33.318 C 112.23 33.241 111.971 33.203 111.697 33.203 C 111.404 33.199 111.13 33.247 110.874 33.345 C 110.622 33.44 110.416 33.572 110.255 33.74 C 110.094 33.908 110.014 34.104 110.014 34.327 C 110.014 34.601 110.089 34.809 110.238 34.952 C 110.388 35.094 110.589 35.2 110.841 35.269 C 111.097 35.335 111.382 35.395 111.697 35.45 C 112.201 35.531 112.667 35.664 113.094 35.85 C 113.526 36.037 113.871 36.285 114.13 36.596 C 114.393 36.903 114.525 37.281 114.525 37.731 C 114.525 38.184 114.393 38.582 114.13 38.926 C 113.871 39.266 113.526 39.53 113.094 39.72 C 112.667 39.907 112.201 40 111.697 40 Z" fill="var(--token-0416a9ef-ee6b-47cd-a2d0-f1d001e916ea, rgb(14, 15, 17)) /* {&quot;name&quot;:&quot;[light] primary-text&quot;} */"></path></svg>